# xmcd
#
# Track frame offsets:
#	150
#	20830
#	35564
#	52133
#	70771
#	89074
#	102597
#	117960
#	137566
#	152991
#	166549
#	180742
#	197180
#	212891
#
# Disc length: 3056 seconds
#
# Revision: 1
# Processed by: cddbd v1.5PL3 Copyright (c) Steve Scherf et al.
# Submitted via: EasyCDDAExtractor 6.2.0.3
#
DISCID=d10bee0e
DTITLE=Gian and Giovani - Acústico - Ao Vivo
DYEAR=2003
DGENRE=Sertanejo
TTITLE0=Amor Perfeito
TTITLE1=Teimosia
TTITLE2=Olhos De Amor
TTITLE3=Eu Quero É Mais
TTITLE4=Tudo Virou Saudade
TTITLE5=Vida Cigana
TTITLE6=Pra Lá De Bagda
TTITLE7=Saudade Antiga
TTITLE8=A Próxima Vítima
TTITLE9=Virou Amor
TTITLE10=Sonhador
TTITLE11=Seu Amor Ainda É tudo
TTITLE12=Cadê O Nosso Amor
TTITLE13=Onde Andarás
EXTD=
EXTT0=
EXTT1=
EXTT2=
EXTT3=
EXTT4=
EXTT5=
EXTT6=
EXTT7=
EXTT8=
EXTT9=
EXTT10=
EXTT11=
EXTT12=
EXTT13=
PLAYORDER=
